<?xml version="1.0" encoding="UTF-8"?>
<svg xmlns="http://www.w3.org/2000/svg" xmlns:xlink="http://www.w3.org/1999/xlink" viewBox="0 0 159.98 159.99">
  <defs>
    <style>
      .cls-1 {
        clip-path: url(#clippath-6);
      }

      .cls-2 {
        clip-path: url(#clippath-7);
      }

      .cls-3, .cls-4, .cls-5, .cls-6 {
        stroke-miterlimit: 10;
      }

      .cls-3, .cls-7 {
        fill: none;
      }

      .cls-3, .cls-5 {
        stroke: #000;
      }

      .cls-8 {
        clip-path: url(#clippath-4);
      }

      .cls-9 {
        clip-path: url(#clippath-9);
      }

      .cls-10 {
        clip-path: url(#clippath-10);
      }

      .cls-4 {
        fill: #fff;
        stroke: #fff;
      }

      .cls-11 {
        clip-path: url(#clippath-1);
      }

      .cls-12 {
        fill: #ffe6d5;
      }

      .cls-13 {
        clip-path: url(#clippath-5);
      }

      .cls-14 {
        clip-path: url(#clippath-8);
      }

      .cls-15 {
        clip-path: url(#clippath-3);
      }

      .cls-6 {
        fill: #ffaed6;
        stroke: #ffaed6;
      }

      .cls-16 {
        clip-path: url(#clippath-2);
      }

      .cls-17 {
        clip-path: url(#clippath);
      }
    </style>
    <clipPath id="clippath">
      <rect class="cls-7" x="27.01" y="60.79" width="20.8" height="20.8"/>
    </clipPath>
    <clipPath id="clippath-1">
      <rect class="cls-7" x="112.03" y="60.79" width="20.8" height="20.8"/>
    </clipPath>
    <clipPath id="clippath-2">
      <rect class="cls-7" x="64.45" y="78.9" width="15.75" height="14.71"/>
    </clipPath>
    <clipPath id="clippath-3">
      <rect class="cls-7" x="79.77" y="78.9" width="15.75" height="14.71"/>
    </clipPath>
    <clipPath id="clippath-4">
      <rect class="cls-7" x="70.43" y="65.71" width="9.55" height="14.28"/>
    </clipPath>
    <clipPath id="clippath-5">
      <rect class="cls-7" x="30.99" y="63.88" width="4.28" height="4.28"/>
    </clipPath>
    <clipPath id="clippath-6">
      <rect class="cls-7" x="116.56" y="63.88" width="4.28" height="4.28"/>
    </clipPath>
    <clipPath id="clippath-7">
      <rect class="cls-7" x="42.52" y="90.71" width="7.05" height="7.05"/>
    </clipPath>
    <clipPath id="clippath-8">
      <rect class="cls-7" x="110.27" y="90.71" width="7.05" height="7.05"/>
    </clipPath>
    <clipPath id="clippath-9">
      <rect class="cls-7" x="13.68" y="55.86" width="65.84" height="48.98"/>
    </clipPath>
    <clipPath id="clippath-10">
      <rect class="cls-7" x="79.52" y="55.86" width="65.84" height="48.98"/>
    </clipPath>
  </defs>
  <g id="Layer_2" data-name="Layer 2">
    <path class="cls-12" d="M91.63,84.15c5-.41,10.01-.68,15.03-.78,1.01-.02,2.03-.06,3.05-.03.22,0,1.87.15.72.02-1.07-.12.36.19.65.22.7.08-1.15-.6-.56-.22.52.34-.64-.55-.58-.49.65.64-.29-.46-.33-.51.24.37.15.67-.16-.4-.02-.07,0-1.19-.09-.59-.03.24-.09,1.17.04.16s0-.17-.06.07c-.16.59-.52.72.18-.27-.22.31-.43.74-.6,1.07-.27.52.38-.48.4-.49-.16.12-.33.38-.47.53-.2.21-1.22,1.05-.47.49s.06-.06-.13.06c-.25.16-.51.32-.78.46-.19.1-.48.2-.65.32.04-.03,1.23-.43.55-.25-.51.13-1,.33-1.52.45-.29.07-.59.12-.88.18-.95.21.2-.15.24-.03,0-.03-1.69.1-1.82.1-1.14.02-2.29-.03-3.43-.12-.52-.04-1.04-.08-1.56-.13-.18-.02-.77-.15-.88-.09.24-.11,1.15.19.27.03-1.09-.2-2.12-.51-3.19-.8-.64-.17.39.12.41.19,0-.03-.6-.3-.72-.36.04.03-.62-.4-.63-.4l.63.46c-.34-.36-.34-.35,0,.06.5,1,.76,1.77.47,2.93.13-.51.36-.51-.25.54,0,0-.89.92-.43.56,1.09-.86-.9.45.01-.04.2-.11.42-.23.62-.35.91-.55-1.07.35-.25.1,2.18-.67,4.3-1.23,6.56-1.6.86-.14-1.1.12-.24.04.3-.03.6-.07.9-.1.52-.05,1.05-.1,1.58-.14,1.18-.09,2.36-.16,3.54-.18,1.03-.02,2.07,0,3.1.06.34.02,1.47.29,1.76.15-.03.01-1.17-.19-.49-.06.36.07.72.12,1.08.19,1,.2,1.99.46,2.96.8.12.04.7.18.82.31-.04-.03-1.25-.64-.36-.13.38.21.85.6,1.26.73-.92-.29-.75-.7-.36-.26.12.14.35.42.48.51.04.03-.81-1.01-.44-.49.43.6-.41-1.18-.22-.46.16.59-.08-.64-.08-.64-.04.19.04.57.06.78.09.88.18,1.77.48,2.61,1.12,3.22,3.8,5.68,7.09,6.59s6.57.17,9.42-1.38c5.42-2.95,9.97-10.61,6.42-16.57-1.11-1.86-2.89-3.2-4.98-3.76-1.56-.42-3.18-.3-4.77-.2-3.21.2-6.41.59-9.59,1.09-1.38.21-2.89,1.59-3.56,2.74-.75,1.28-1.06,3.16-.6,4.59,1.09,3.36,4.01,4.67,7.32,4.16.32-.05.64-.1.97-.15,1.14-.18.06-.03-.13.01.62-.14,1.31-.16,1.94-.23,1.38-.14,2.76-.25,4.14-.33.53-.03,1.06-.02,1.59-.07.96-.09-.28-.07-.48-.13-.5-.15-1.08-.51-1.47-.88-.41-.39-.82-.97-.98-1.53-.37-1.28-.1-1.14-.11-.61-.02,1,.03-.54.1-.59-.13.1-.21.71-.26.87-.22.74.57-1,.13-.37-.14.2-.28.44-.39.66-.35.68.77-.83.24-.28-.18.18-.34.39-.53.57s-.39.34-.57.53c-.44.44.4-.34.44-.34-.11,0-.56.36-.69.44-.19.11-.38.21-.57.3-.4.19-.26.13.43-.19-.06.15-.77.1-.83.22l.37-.05c.51-.05.49-.07-.06-.03h-.21c-.49-.03-.28,0,.61.08-.23-.05-.7-.29.06.08.85.42.15.02-.06-.08-.67-.31.92.81.4.3s.67,1.05.3.41c-.35-.61.38,1.33.16.33.31,1.44.09.83.09.42,0-.59-.19-1.66-.25-1.97-.17-.91-.43-1.59-.86-2.48-.57-1.17-1.4-2.27-2.39-3.13-2.24-1.94-4.97-3.16-7.81-3.92-5.01-1.35-10.33-1.32-15.45-.77s-11.94,1.36-15.8,5.4c-2.72,2.85-3.46,7.08-1.48,10.57,1.66,2.93,4.78,4.6,7.88,5.57,2.6.81,5.42,1.04,8.13,1.22,2.88.2,5.78.09,8.61-.53,5.44-1.2,10.35-5.15,11.98-10.58,1.09-3.63.37-7.82-2.42-10.49-2.37-2.26-5.66-2.96-8.83-3.03-5.95-.12-11.98.32-17.91.81-3.1.25-6.11,2.56-5.95,5.95.13,3.01,2.63,6.23,5.95,5.95h0Z"/>
    <path class="cls-12" d="M114.97,62.29c-9.72-1.85-19.6-2.99-29.49-3.28-9.22-.27-18.53.15-27.59,2-4.71.96-9.25,2.43-13.66,4.34-2.84,1.23-5.26,3.49-5.69,6.69-.5,3.7,1.42,7.25,4.76,8.94,4.44,2.26,10.05,2.85,14.94,3.15,4.51.28,9.04,0,13.51-.52,10.85-1.28,21.71-3.2,32.06-6.73,2.94-1,5.19-4.13,4.16-7.32-.94-2.92-4.17-5.24-7.32-4.16-4.1,1.4-8.19,2.66-12.44,3.51s-8.28,1.57-12.44,2.22c-.93.15-1.87.28-2.8.42-.38.05-.97.32.18-.02-.21.06-.48.06-.7.09-.55.07-1.09.13-1.64.19-2.1.23-4.2.4-6.31.48s-4.03.07-6.04-.05c-1-.06-2-.16-2.99-.26-1.19-.12.93.16-.25-.03-.53-.09-1.06-.17-1.6-.27-.99-.19-1.97-.41-2.94-.66-.45-.12-.9-.24-1.35-.38-.16-.05-.62-.26-.74-.24l.7.31-.34-.18s-.76-.62-.02,0c.28.24.6.45.79.78.77,1.34.63,3.5-.48,4.62-1.04,1.06-.47.37.09.09,1.08-.53-.73.27.29-.14,3.7-1.47,7.51-2.6,11.41-3.39.96-.2,1.92-.37,2.88-.53.45-.07.89-.14,1.34-.21.22-.03.45-.06.67-.1.86-.13-1.1.13-.24.03,2.03-.23,4.05-.44,6.08-.57,4.07-.26,8.15-.31,12.23-.23,4.81.1,9.61.39,14.39.89,1.22.13,2.43.26,3.64.42.24.03.48.06.73.09.69.09.37.02-.13-.02.56.04,1.13.16,1.69.24,2.5.37,4.99.79,7.47,1.27,3.05.58,6.57-.85,7.32-4.16.67-2.94-.89-6.7-4.16-7.32h0Z"/>
    <path class="cls-12" d="M87.45,74.96c2.48-.69,4.98-1.3,7.51-1.81,1.26-.26,2.53-.49,3.8-.7.64-.1,1.27-.2,1.91-.3.14-.02.93-.07.16-.03-.88.05.47-.06.64-.08,5.64-.69,11.32-.79,16.93-1.69,1.18-.19,2.35-.41,3.52-.63.62-.12,1.25-.23,1.87-.34.31-.05.63-.11.94-.16.18-.03,1.52-.22.62-.1-.83.11.75-.07.99-.09.49-.04.99-.06,1.48-.07s1,.03,1.49.05c.77.04-.02.28-.48-.08.18.14.68.13.9.18.4.1.8.29,1.2.38-1.21-.27-.88-.41-.46-.15-.01,0,.56.38.6.37-.43.09-.93-.85-.38-.26-.04-.04.51.51.49.53-.13.13-.72-1.3-.24-.21.1.23.4,1.23.22.38s-.02.01.05.24c.08.26.16.52.23.79.13.46.24.93.35,1.39.28,1.19.54,2.39.74,3.59.04.24.07,1.15.05.28-.03-.95.01.29.03.49.05.64.07,1.27.05,1.91,0,.28-.04.56-.05.84,0,.74.3-1.22.02-.14-.07.27-.12.54-.19.81-.06.21-.26,1.35-.1.47.14-.76,0-.03-.13.24-.15.3-.32.58-.5.87-.31.52-.65,1.02-.97,1.53-.85,1.37-1.6,2.9-1.93,4.48-.65,3.04.9,6.58,4.16,7.32,2.99.68,6.63-.9,7.32-4.16.05-.26.14-.51.19-.76.25-1.21-.48.79-.06.16.33-.49.6-1.04.92-1.54.87-1.37,1.6-2.73,2.18-4.26.99-2.64,1.22-5.63.93-8.42-.62-6.11-1.85-13.02-7.22-16.75-4.98-3.46-11.51-2.55-17.08-1.56-1.25.22-2.5.47-3.75.69-.39.07-.78.13-1.17.2-.19.03-1.2.19-.4.07s-.23.03-.43.05c-.49.06-.98.11-1.47.16-2.86.28-5.73.41-8.58.68-6.78.64-13.51,1.82-20.07,3.65-3,.84-5.15,4.26-4.16,7.32s4.11,5.05,7.32,4.16h0Z"/>
    <path class="cls-12" d="M92.42,80.07c-17.56-2.23-35.34-2.52-52.97-.86l1.58,11.69c1.22-.28,2.44-.53,3.67-.74.65-.11,1.31-.22,1.96-.31.28-.04.6-.06.87-.12l-.71.1c.29-.04.58-.07.88-.11,2.49-.3,4.99-.53,7.49-.76,5.47-.51,11-1.03,16.35-2.36,2.82-.7,5.76-1.62,8.35-2.95,4.09-2.11,5.31-7.18,2.95-11.03s-6.66-4.14-10.6-4.49c-2.65-.24-5.31-.32-7.96-.24-6.61.19-13.25,1.25-19.57,3.17-2.85.87-4.66,3.58-4.26,6.53s2.85,4.94,5.85,5.16c5.96.45,11.93.12,17.89-.19,5.94-.31,11.88-.62,17.83-.94,6.05-.32,12.03-.94,17.83-2.77,2.6-.82,5.17-1.76,7.81-2.47,1.24-.34,2.49-.63,3.76-.83.44-.07,1.4-.07-.25.02.25-.01.51-.06.75-.09,1.03-.13,2.06-.26,3.09-.4,2.8-.39,5.65-1.06,8.01-2.69,1.79-1.23,3.09-2.7,4.32-4.49.45-.65-.76.83-.21.26.12-.15.26-.3.39-.44.4-.36.38-.36-.04,0-.13.07-1.64.71-.98.54.46-.13.21-.1-.77.08-1.05-.03-1.97-.44-2.76-1.21l4.21-10.16c-22.44-.03-44.88-.06-67.32-.09-5.65,0-11.3-.02-16.95-.02-2.74,0-5.48,0-8.23-.01-2.95,0-6.02.04-8.86.9-6.28,1.9-11.2,7.69-9.83,14.5.69,3.44,3.49,6.16,6.79,7.15,2.62.79,5.37.5,8.01,0,2.77-.52,5.49-1.21,8.27-1.64.27-.04.68-.16.94-.14l-.64.08c.24-.03.47-.06.71-.09.71-.09,1.41-.17,2.12-.24,1.58-.15,3.15-.27,4.74-.34,2.93-.13,5.86-.12,8.78.04,1.5.08,3,.2,4.5.36.31.03.63.07.94.11.23.03,1.86.19.3.03.78.08,1.57.23,2.35.36l-1.42-10.88c-.41.25-.85.46-1.25.71-.69.42,1.06-.37.3-.11-.19.07-.38.15-.58.21-1.04.36-2.12.61-3.21.79-.27.05-.56.06-.83.13,0,0,1.23-.13.54-.08-.49.04-.97.1-1.46.14-1.21.11-2.42.19-3.63.28-4.92.36-9.84.73-14.76,1.09-2.56.19-5.41.1-7.9.75-4,1.04-6.44,4.91-5.45,8.95.89,3.65,4.68,5.42,8.11,5.66,2.26.16,4.62-.07,6.88-.25,9.84-.76,19.5-2.88,29.07-5.23,4.68-1.15,9.34-2.46,14.09-3.27.61-.11.49-.35-.14.02.15-.09.55-.06.72-.07.56-.05,1.13-.09,1.69-.11s1.18-.02,1.77.01c.2,0,.4.02.6.04,1.26.09-.04-.19-.18-.06.27-.25,2.4.51,2.75.62.26.08.51.18.76.26.6.19.29.42-.31-.15.34.32,1,.5,1.41.74.23.14.45.29.67.43.13.09.72.48.04.01-.72-.49-.02.07.15.18.47.3-.26-.35-.32-.46l.32-2.63c.86-2.49.88-3.28.06-2.37.05-.05.98-.6.46-.39-.57.23-1.14.66-1.7.95-.45.24-.91.47-1.38.68-.2.09-.4.18-.6.28-.99.46.06,0,.21-.08-.99.55-2.23.86-3.31,1.2-2.11.67-4.26,1.19-6.43,1.61-1.02.2-2.04.37-3.06.52-.22.03-.44.06-.66.1-.85.13,1.12-.14.27-.03-.59.07-1.17.14-1.76.21-4.86.54-9.75.79-14.61,1.25-2.8.27-5.6.61-8.38,1.05-3.15.5-5.96,1.84-7.28,4.95-1.51,3.58.21,7.52,3.53,9.34,2.51,1.38,5.33,1.38,8.11,1.53,4.95.27,9.91.52,14.86.75,9.91.45,19.83.82,29.75,1.1,4.88.14,9.75.25,14.63.35,2.48.05,4.96.09,7.44.13,1.28.02,2.51.03,3.78-.14,2.25-.3,4.08-1.46,5.45-3.24,3.08-3.99,3.08-9.1,2.38-13.84-.25-1.71-.65-3.38-1.02-5.07-.19-.87-.37-1.75-.53-2.63-.03-.17-.06-.35-.09-.52-.17-1,.08.45.07.54.04-.43-.1-.94-.12-1.38s-.03-.91-.01-1.36c0-.26.15-1.67.02-.55-.12,1.05.08-.23.16-.52.12-.44.27-.86.44-1.29.94-2.32-.61-5.6-2.74-6.72-2.26-1.2-5.4-1.07-7.21.93-.57.63-1.23,1.14-1.83,1.74,1.2-1.2.17-.15-.25.12-.3.2-.61.39-.92.57-1.47.87-3.02,1.6-4.57,2.32-3.5,1.62-6.79,3.32-9.7,5.9-3.76,3.34-.87,10.49,4.21,10.16,8.47-.54,16.51-2.63,24.22-6.15l-7.21-9.35c-1.42,1.7-2.95,3.3-4.61,4.77-.37.33-.75.66-1.14.98-.22.18-.44.36-.67.54.64-.49.71-.54.19-.15-.93.67-1.86,1.32-2.82,1.94-3.34,2.12-3.85,6.45-1.2,9.35,1.61,1.76,3.7,2.91,5.82,3.92.89.43,1.73.9,2.58,1.38.69.38-.33-.21-.44-.37.13.19.4.37.58.53.16.14.65.75.04,0-.66-.83.01.13.1.29.82,1.56,1.62,2.97,3.04,4.07,2.17,1.68,5.01,2.24,7.58,1.15,3.48-1.47,5.39-5.21,6.61-8.6.85-2.37-.54-5.56-2.74-6.72-2.36-1.25-5.27-.98-7.21.93-2.05,2.02-4.41,3.96-6.17,6.24-1.94,2.51-1.96,6.19.37,8.52s6.56,2.46,8.92-.02c2.06-2.16,2.29-5.45.47-7.82-1.64-2.13-5.3-3.32-7.68-1.53-.64.48-1.31.93-2.01,1.34-.35.2-.7.39-1.05.57l-.36.17c-.59.27-.48.23.33-.12-.42.43-1.69.62-2.26.79-.77.23-1.56.43-2.35.59-.62.13-1.8.57-2.41.42l.77-.11c-.27.03-.54.06-.82.09-.41.04-.82.08-1.23.11-1.64.13-3.28.2-4.93.24-7.83.17-15.68.04-23.51-.25-7.6-.28-15.21-.65-22.78-1.41-.88-.09-1.76-.19-2.64-.29-.44-.05-.88-.09-1.32-.17,1.64.27.13.01-.17-.03-1.75-.26-3.48-.56-5.21-.92-3.45-.72-6.77-1.74-10.07-2.97-1.4-.52,1.17.54-.19-.07-.53-.24-1.07-.48-1.59-.73-.79-.38-1.57-.78-2.33-1.21-1.78-.98-3.51-2.07-5.25-3.14-3.66-2.27-7.36-4.35-11.43-5.8-2.94-1.05-6.65,1.18-7.32,4.16-.76,3.34,1.01,6.2,4.16,7.32.36.13.9.24,1.22.46-1.18-.81-.21-.09.17.09.79.36,1.56.76,2.32,1.17,1.66.9,3.27,1.89,4.88,2.88,3.04,1.88,6.08,3.74,9.37,5.17,7.45,3.22,15.17,4.82,23.21,5.75s15.33,1.26,23,1.57c8.08.33,16.18.47,24.27.35s16.86-.76,23.53-5.75l-7.21-9.35-.12.13,4.21-1.74h-.19c1,.27,2,.54,3,.81l-.18-.11,2.14,2.14-.1-.18.6,4.59-1.14,1.89.34-.34c.24-.21.46-.45.69-.68.52-.51,1.03-1.02,1.55-1.52.97-.96,1.95-1.92,2.92-2.88l-9.95-5.79c-.23.61-.17.51.16-.3-.11.24-.23.49-.35.72-.19.36-.39.7-.61,1.04-.15.22-.3.44-.46.66.26-.49.64-.85,1.15-1.09l4.33-.03c.44.26.8.61,1.08,1.05-.12,0-1.1-2.12-1.32-2.42-.67-.97-1.36-1.78-2.27-2.51-1.54-1.24-3.13-2.11-4.9-2.97-.69-.33-1.38-.68-2.03-1.08-.54-.33-.74-.91.15.19-.26-.32-.65-.58-.93-.89l-1.2,9.35c4.28-2.73,8.2-6.04,11.46-9.94,1.92-2.3,2.38-5.34.47-7.82s-4.94-2.79-7.68-1.53c-.33.15-.9.51-1.25.56.65-.27.77-.32.37-.15-.21.09-.42.17-.64.26-.78.31-1.57.6-2.36.88-1.66.58-3.34,1.08-5.05,1.51s-3.28.75-4.94,1.02c-.17.03-1.22.29-1.36.21.75-.1.9-.12.45-.07-.23.03-.46.05-.68.08-.91.1-1.83.17-2.74.23l4.21,10.16c.18-.16.36-.32.55-.48.49-.39.37-.31-.35.26.3-.16.6-.43.9-.62.71-.47,1.45-.89,2.21-1.29,1.52-.81,3.1-1.5,4.65-2.23,3.4-1.59,6.75-3.48,9.3-6.3l-9.95-5.79c-1.55,3.85-1.1,8.15-.34,12.11.31,1.65.71,3.27,1.05,4.91.08.41.16.81.23,1.22.05.28.26,1.63.1.59s.01.29.03.58c.03.45.04.9.03,1.35,0,.3-.11.7-.05.99-.18-1,.22-1.21.08-.6-.04.16-.06.32-.1.48-.06.24-.37.87-.33,1.11-.02-.1.67-1.35.21-.49-.07.13-.34.49-.34.62-.01-.3,1.04-1.05,1.14-1.1.05-.02,2.34-.38,1.6-.49-.52-.07-1.1,0-1.62,0-1.16-.02-2.31-.04-3.47-.05-4.71-.08-9.42-.18-14.14-.3-9.42-.24-18.84-.55-28.26-.95-4.71-.2-9.42-.41-14.12-.65-2.31-.12-4.62-.24-6.94-.36-.58-.03-1.16-.06-1.73-.1-.42-.02-1.36-.25-1.73-.1.09-.03,1.28.34.81.11-.11-.06-.34-.09-.47-.11-.87-.14.39.18.53.26-.7-.39.39.33.49.44l1.12,1.99-.45,3.55c-.42.72-1.3,1.28-1.94,1.73s-.38.12.02.05c.15-.02.3-.06.45-.09.56-.11,1.13-.19,1.69-.28.24-.04.48-.07.73-.11,1.17-.18-.64.07.11-.02,2.27-.25,4.54-.49,6.82-.68,4.56-.37,9.13-.65,13.66-1.23s9.09-1.34,13.45-2.8c2.29-.76,4.54-1.69,6.7-2.77,2.67-1.34,5.55-3.1,6.41-6.18,1.83-6.53-4.89-10.8-10.21-12.46-4.8-1.49-9.89-1.13-14.75-.24-4.5.82-8.92,2.1-13.36,3.19s-8.85,2.12-13.33,2.98c-2.19.42-4.39.8-6.59,1.12-.23.03-.48.09-.71.1,1.28-.03.49-.06.16-.02-.55.07-1.1.14-1.66.2-1.1.12-2.21.23-3.32.31s-2.22.15-3.33.2c-.56.02-1.11.04-1.67.05-.38,0-1.46-.18-1.73,0-.05.04,1.43.19.82.1-.35-.05-.78-.4,0,.06.41.24.88.4,1.2.79l.36,2.91c1.08,1.9.75,3.21-.98,3.95-1.73,1.35-1.76,1.17-.89.92.56-.15-.82.16-.82.11,0,0,1.74-.13,1.97-.15,4.67-.35,9.35-.69,14.02-1.04s9.41-.43,13.95-1.44c2.22-.5,4.44-1.36,6.37-2.57,2.05-1.28,3.16-3.53,2.84-5.93-.29-2.13-1.97-4.57-4.26-4.95-10.68-1.75-21.32-1.78-32-.03-2.36.39-4.67.95-7.01,1.42-.22.04-.44.08-.66.12-.53.11-.69-.15.58-.07-.38-.02-.79.07-1.17.08-.23,0-1.85-.06-.65.02.99.06.3.07.04-.05-.61-.29,1.42.75.47.21-.4-.23-.56-.57.5.41-.15-.14-.52-.57.07.14l.28.36c-.24-.45-.25-.44-.02.02.03.18.19,1.69.25,1,.02-.24.05-1.12-.04-.15-.08.88,0,.3.04.09.13-.89-.05.31-.22.46.14-.12.34-.57.44-.75.37-.64-.83.87-.27.39.17-.15.35-.33.5-.5.51-.55-1.01.65-.37.27.15-.09.3-.2.45-.29.21-.12.42-.23.63-.35.95-.56-.46.24-.44.17.04-.22,1.75-.5,1.97-.54s1.15-.3.33-.06c-.71.21-.09.02.12.01.61-.03,1.22-.07,1.83-.08,1.28-.03,2.55,0,3.83,0,2.66,0,5.32,0,7.98.01,5.24,0,10.47.01,15.71.02,10.55.01,21.11.03,31.66.04,11.8.02,23.6.03,35.4.05,2.38,0,4.53-1.5,5.44-3.66.85-2.01.6-5.02-1.23-6.5s-3.6-2.35-5.98-2.25-4.61,1.17-6.3,2.85c-.68.67-1.25,1.51-1.81,2.26-.15.2-.38.69-.58.8.03-.02.98-1.06.18-.28.04-.04-.53.49-.52.51-.07-.33,1.09-.69.35-.28-.25.14-.52.29-.77.44-.46.29,1.36-.48.1-.04-1.06.36-2.15.58-3.26.75-.51.08-1.22-.06.26-.03-.23,0-.53.07-.76.09-1.03.13-2.06.26-3.08.4-2.81.39-5.52,1.16-8.21,2.03s-5.46,1.86-8.27,2.53c-.6.14-1.21.27-1.82.39-.31.06-.61.11-.92.16-.06,0-1.58.26-.6.1s-.54.06-.6.07c-.31.04-.62.07-.93.1-.78.08-1.56.14-2.34.2-6.19.45-12.41.68-18.61,1.01-6.86.36-13.75.85-20.62.34l1.58,11.69c2.24-.68,4.52-1.26,6.82-1.71,1.15-.23,2.31-.41,3.47-.59.87-.14-1.07.12-.19.03.23-.02.47-.06.7-.08.7-.08,1.4-.14,2.1-.2,2.34-.19,4.68-.26,7.03-.2,1.17.03,2.34.08,3.51.17.55.04,1.09.09,1.63.14.31.03.62.06.93.1.16.02.31.04.47.05.49.06.31.04-.54-.07.07.06.5.13.6.14.64.07-.61-.33-.8-.48-.33-.26-.64-.58-.86-.94l-.37-.83.44-3.4s2.13-2.04,1.08-1.29c-.64.45.02-.42.3-.12-.06-.07-1.5.58-1.64.62-2.05.73-4.16,1.29-6.3,1.73-1.07.22-2.15.41-3.23.58-.5.08-1.01.19-1.52.22.17-.01,1.37-.17.28-.04-.36.04-.73.09-1.09.13-2.2.26-4.4.46-6.6.66-5.43.51-10.9,1.04-16.23,2.28-2.89.67-4.64,3.73-4.26,6.53s2.89,5.44,5.85,5.16c17.63-1.66,35.4-1.37,52.97.86,1.4.18,3.26-.79,4.21-1.74,1.03-1.03,1.81-2.73,1.74-4.21s-.57-3.14-1.74-4.21c-1.24-1.14-2.55-1.53-4.21-1.74h0Z"/>
    <path class="cls-12" d="M89.61,92.06c-6.38.46-12.78.38-19.15-.15v11.91c9.46.6,18.94.68,28.41.24,3.11-.15,6.1-2.63,5.95-5.95s-2.62-5.88-5.95-5.95c-5.04-.11-10.06-.61-15.09-.76s-10.32.32-15.44,1.33c-.68.11-.61.1.2-.01-.31.04-.61.06-.92.08-.45.02-1.43.18-1.84-.04l.69.09c-.3-.05-.6-.1-.89-.16-.59-.11-1.19-.24-1.78-.35-2.61-.46-5.25-.68-7.9-.72-2.27-.03-4.54.03-6.82-.06-.6-.02-1.2-.05-1.8-.1-.37-.03-2.31,0-.65-.03-1.12.02-2.44-.47-3.5-.8-2.98-.91-6.62,1.09-7.32,4.16-.73,3.22.97,6.34,4.16,7.32,4.87,1.49,9.98,1.38,15.01,1.41,1.21,0,2.42.03,3.63.1.53.03,1.31-.03,1.8.15-.84-.12-.91-.13-.24-.03.3.05.6.1.89.16,2.65.5,5.22.98,7.93.66,1.61-.19,3.19-.49,4.79-.77.17-.03,1.97-.31,1.11-.19s.97-.1,1.13-.11c2.57-.23,5.16-.26,7.75-.18,5.04.15,10.05.65,15.09.76v-11.91c-9.47.44-18.95.36-28.41-.24-3.11-.2-6.09,2.88-5.95,5.95.15,3.45,2.62,5.68,5.95,5.95,6.37.53,12.77.61,19.15.15,3.1-.22,6.1-2.58,5.95-5.95-.14-3.03-2.63-6.19-5.95-5.95h0Z"/>
    <path class="cls-12" d="M59.86,98.52c-4.08.46-8.17.19-12.24-.25-3.66-.4-7.34-.81-10.92-1.7-6.14-1.51-11.86-4.71-14.47-10.74-1.25-2.88-1.66-6.32-1.78-9.44-.06-1.46.06-2.76.61-4.11.82-2.02.82-4.64-1.75-5.42s-4.73,1.64-4.17,4.13c.35,1.58,1.37,3.07,1.89,4.63,1.18,3.5,1.18,7.23,2.74,10.61,1.68,3.62,3.86,7.04,7.64,8.66,4.05,1.74,8.44,2.87,12.72,3.86,1.56.36,3.22-.48,3.66-2.08.41-1.5-.51-3.3-2.08-3.66-3.24-.75-6.45-1.65-9.61-2.7-1.17-.39-2.43-.74-3.46-1.45-.97-.66-1.53-1.66-2.11-2.66-.71-1.2-1.47-2.41-1.89-3.75-.47-1.48-.58-3.03-.86-4.55s-.65-2.89-1.14-4.29c-.31-.87-.66-1.73-1.03-2.57-.15-.34-.29-.68-.46-1.01-.21-.39-.1-.52-.13-.1l-.41,1.5.1-.19-1.78,1.37.21-.07h-1.58l.18.05-1.78-1.37c-.04-.05-.26-1.58-.21-1.58-.03,0-.33.77-.31.73-.21.5-.39,1-.52,1.52-.28,1.11-.4,2.3-.42,3.44-.04,2.2.31,4.43.62,6.6.62,4.34,2.26,8.27,5.03,11.69,5.75,7.11,15.06,9.07,23.66,10.14,5.32.66,10.7,1.3,16.06.7,1.6-.18,2.98-1.24,2.98-2.98,0-1.47-1.37-3.16-2.98-2.98h0Z"/>
  </g>
  <g id="Layer_1" data-name="Layer 1">
    <g>
      <g id="_Mirror_Repeat_" data-name="&amp;lt;Mirror Repeat&amp;gt;">
        <g class="cls-17">
          <circle class="cls-5" cx="37.41" cy="71.19" r="9.9"/>
        </g>
      </g>
      <g id="_Mirror_Repeat_-2" data-name="&amp;lt;Mirror Repeat&amp;gt;">
        <g class="cls-11">
          <circle class="cls-5" cx="122.43" cy="71.19" r="9.9"/>
        </g>
      </g>
    </g>
    <g>
      <g id="_Mirror_Repeat_-3" data-name="&amp;lt;Mirror Repeat&amp;gt;">
        <g class="cls-16">
          <path class="cls-3" d="M79.7,78.9c0,.85,0,2.76,0,5.3,0,2.61.01,3.12-.3,3.87-.86,2.08-2.94,3.07-4.57,3.83-1.05.5-2.52,1.17-4.56,1.21-2.69.05-4.69-1.03-5.56-1.58"/>
        </g>
      </g>
      <g id="_Mirror_Repeat_-4" data-name="&amp;lt;Mirror Repeat&amp;gt;">
        <g class="cls-15">
          <path class="cls-3" d="M80.27,78.9c0,.85,0,2.76,0,5.3,0,2.61-.01,3.12.3,3.87.86,2.08,2.94,3.07,4.57,3.83,1.05.5,2.52,1.17,4.56,1.21,2.69.05,4.69-1.03,5.56-1.58"/>
        </g>
      </g>
    </g>
    <g>
      <g id="_Mirror_Repeat_-5" data-name="&amp;lt;Mirror Repeat&amp;gt;">
        <g class="cls-8">
          <path class="cls-5" d="M80.33,79.61c-8.63-7.5-9.91-10.37-9.25-11.53.52-.92,2.52-1.23,5-1.61,1.68-.26,3.09-.28,4.09-.24"/>
        </g>
      </g>
      <g id="_Mirror_Repeat_-6" data-name="&amp;lt;Mirror Repeat&amp;gt;">
        <path class="cls-5" d="M79.64,79.61c8.63-7.5,9.91-10.37,9.25-11.53-.52-.92-2.52-1.23-5-1.61-1.68-.26-3.09-.28-4.09-.24"/>
      </g>
      <path class="cls-3" d="M79.95,80.46v-14.63"/>
    </g>
    <g>
      <g id="_Mirror_Repeat_-7" data-name="&amp;lt;Mirror Repeat&amp;gt;">
        <g class="cls-13">
          <circle class="cls-4" cx="33.13" cy="66.02" r="1.64"/>
        </g>
      </g>
      <g id="_Mirror_Repeat_-8" data-name="&amp;lt;Mirror Repeat&amp;gt;">
        <g class="cls-1">
          <circle class="cls-4" cx="118.7" cy="66.02" r="1.64"/>
        </g>
      </g>
    </g>
    <g>
      <g id="_Mirror_Repeat_-9" data-name="&amp;lt;Mirror Repeat&amp;gt;">
        <g class="cls-2">
          <circle class="cls-6" cx="46.04" cy="94.23" r="3.02"/>
        </g>
      </g>
      <g id="_Mirror_Repeat_-10" data-name="&amp;lt;Mirror Repeat&amp;gt;">
        <g class="cls-14">
          <circle class="cls-6" cx="113.79" cy="94.23" r="3.02"/>
        </g>
      </g>
    </g>
    <g>
      <g id="_Mirror_Repeat_-11" data-name="&amp;lt;Mirror Repeat&amp;gt;">
        <g class="cls-9">
          <path class="cls-3" d="M79.92,56.43c-11.86-.08-26.77-.11-45.21.02-5.2.04-9.71.13-13.59,3.21-8.58,6.83-9.45,24.67-1.2,34.58,2.92,3.5,6.18,5.06,9.47,6.62,6.69,3.19,12.41,3.55,34.13,3.47,5.73-.02,11.08-.07,16-.13"/>
        </g>
      </g>
      <g id="_Mirror_Repeat_-12" data-name="&amp;lt;Mirror Repeat&amp;gt;">
        <g class="cls-10">
          <path class="cls-3" d="M79.12,56.43c11.86-.08,26.77-.11,45.21.02,5.2.04,9.71.13,13.59,3.21,8.58,6.83,9.45,24.67,1.2,34.58-2.92,3.5-6.18,5.06-9.47,6.62-6.69,3.19-12.41,3.55-34.13,3.47-5.73-.02-11.08-.07-16-.13"/>
        </g>
      </g>
    </g>
  </g>
</svg>